HIERARCHY
ROOT root
{
	OFFSET 0.000000 0.000000 0.000000
	CHANNELS 6 Xposition Yposition Zposition Zrotation Yrotation Xrotation
	JOINT lhip
	{
		OFFSET 0.058581 -0.082280 -0.017664
		CHANNELS 3 Zrotation Yrotation Xrotation
		JOINT lknee
		{
			OFFSET 0.043451 -0.386469 0.008037
			CHANNELS 3 Zrotation Yrotation Xrotation
			JOINT lankle
			{
				OFFSET -0.014790 -0.426874 -0.037428
				CHANNELS 3 Zrotation Yrotation Xrotation
				JOINT ltoe
				{
					OFFSET 0.041054 -0.060286 0.122042
					CHANNELS 3 Zrotation Yrotation Xrotation
					End Site
					{
						OFFSET 0.000000 0.000000 0.000000
					}
				}
			}
		}
	}
	JOINT rhip
	{
		OFFSET -0.060310 -0.090513 -0.013543
		CHANNELS 3 Zrotation Yrotation Xrotation
		JOINT rknee
		{
			OFFSET -0.043257 -0.383688 -0.004843
			CHANNELS 3 Zrotation Yrotation Xrotation
			JOINT rankle
			{
				OFFSET 0.019056 -0.420046 -0.034562
				CHANNELS 3 Zrotation Yrotation Xrotation
				JOINT rtoe
				{
					OFFSET -0.034840 -0.062106 0.130323
					CHANNELS 3 Zrotation Yrotation Xrotation
					End Site
					{
						OFFSET 0.000000 0.000000 0.000000
					}
				}
			}
		}
	}
	JOINT lowerback
	{
		OFFSET 0.004439 0.124404 -0.038385
		CHANNELS 3 Zrotation Yrotation Xrotation
		JOINT upperback
		{
			OFFSET 0.004488 0.137956 0.026820
			CHANNELS 3 Zrotation Yrotation Xrotation
			JOINT chest
			{
				OFFSET -0.002265 0.056032 0.002855
				CHANNELS 3 Zrotation Yrotation Xrotation
				JOINT lowerneck
				{
					OFFSET -0.013390 0.211636 -0.033468
					CHANNELS 3 Zrotation Yrotation Xrotation
					JOINT upperneck
					{
						OFFSET 0.010113 0.088937 0.050410
						CHANNELS 3 Zrotation Yrotation Xrotation
						End Site
						{
							OFFSET 0.000000 0.000000 0.000000
						}
					}
				}
				JOINT lclavicle
				{
					OFFSET 0.071702 0.114000 -0.018898
					CHANNELS 3 Zrotation Yrotation Xrotation
					JOINT lshoulder
					{
						OFFSET 0.122921 0.045205 -0.019046
						CHANNELS 3 Zrotation Yrotation Xrotation
						JOINT lelbow
						{
							OFFSET 0.255332 -0.015649 -0.022946
							CHANNELS 3 Zrotation Yrotation Xrotation
							JOINT lwrist
							{
								OFFSET 0.265709 0.012698 -0.007375
								CHANNELS 3 Zrotation Yrotation Xrotation
								End Site
								{
									OFFSET 0.000000 0.000000 0.000000
								}
							}
						}
					}
				}
				JOINT rclavicle
				{
					OFFSET -0.082954 0.112472 -0.023707
					CHANNELS 3 Zrotation Yrotation Xrotation
					JOINT rshoulder
					{
						OFFSET -0.113228 0.046853 -0.008472
						CHANNELS 3 Zrotation Yrotation Xrotation
						JOINT relbow
						{
							OFFSET -0.260127 -0.014369 -0.031269
							CHANNELS 3 Zrotation Yrotation Xrotation
							JOINT rwrist
							{
								OFFSET -0.269108 0.006794 -0.006027
								CHANNELS 3 Zrotation Yrotation Xrotation
								End Site
								{
									OFFSET 0.000000 0.000000 0.000000
								}
							}
						}
					}
				}
			}
		}
	}
}
MOTION
Frames: 13
Frame Time: 0.033333
-0.358920 2.581151 0.985461 173.992948 -0.006023 83.581360 4.046064 9.028244 17.229828 -5.643928 0.818908 26.025423 -2.628022 9.644885 -15.170932 0.000000 -0.000000 0.000000 3.284601 -5.121931 -15.576574 -1.916905 -23.886085 21.226495 -2.897917 -18.693952 -4.851924 0.000000 -0.000000 0.000000 1.747543 -4.592389 7.553739 0.600773 -0.913018 7.446365 -1.010019 -3.417508 3.490408 3.691875 1.156950 7.888730 -1.988578 5.819667 13.277197 -30.115310 2.041908 5.252726 -61.665426 -6.905738 6.860324 14.356865 -26.588920 6.209556 1.390482 -2.813690 -3.641639 26.302199 1.881911 3.846695 60.096816 6.795223 12.044354 -15.002432 26.472032 -1.917681 5.835799 6.105663 -6.148180 
-0.352768 2.602356 0.986977 172.542477 -0.254414 83.473098 4.517925 8.826743 15.277841 -5.881380 2.576948 32.099262 -2.911964 8.901638 -11.557369 0.000000 -0.000000 0.000000 3.288744 -5.163883 -13.966118 -1.405686 -23.041520 21.334687 -3.565754 -17.939916 -5.803244 0.000000 -0.000000 0.000000 1.906876 -4.188238 7.481452 0.776148 -0.999672 7.628384 -1.050941 -3.406882 3.298888 3.870879 0.854334 7.730327 -1.739613 5.801271 13.230717 -30.397176 2.902526 5.456626 -61.290122 -5.617866 6.274877 14.143749 -27.079865 6.191057 1.012666 -2.646442 -3.684607 26.391603 1.617232 3.935016 59.572298 6.739079 11.702891 -14.850227 27.791599 -1.868622 5.729627 6.173785 -6.780841 
-0.346989 2.621969 0.987952 170.578034 -0.490999 83.206737 4.735623 8.464790 13.362127 -5.775438 4.344077 37.758233 -2.825098 8.597815 -7.904608 0.000000 -0.000000 0.000000 3.363808 -4.949098 -12.386713 -1.035145 -21.978107 21.554621 -4.142713 -17.317400 -6.804905 0.000000 -0.000000 0.000000 2.087117 -3.755429 7.700475 0.869933 -0.937578 7.806420 -1.089454 -3.259507 3.114692 3.957070 0.394684 7.655297 -1.389898 5.945610 13.050499 -30.820951 3.613197 5.535496 -60.875325 -4.550541 5.783076 14.133002 -27.805820 5.811509 1.358310 -2.410551 -3.665817 26.458079 1.620843 4.012870 58.900743 6.753073 11.547013 -14.620008 29.236527 -1.803903 5.338318 6.270782 -7.184747 
-0.341249 2.639807 0.988861 168.302461 -0.724381 82.946165 4.630867 7.895004 11.407050 -5.127321 6.055329 42.280632 -2.718810 9.405581 -6.867200 0.000000 -0.000000 0.000000 3.589924 -4.625278 -10.994440 -0.914910 -20.595671 21.878887 -4.323029 -16.827695 -7.786391 0.000000 -0.000000 0.000000 2.144071 -3.195652 7.914680 0.979225 -0.908844 7.910913 -1.077474 -3.057007 3.118457 4.103775 -0.015542 7.723104 -1.098589 6.146007 12.905573 -31.068910 4.079316 5.499207 -60.685241 -3.749528 5.480829 14.122013 -28.481087 5.385947 1.959499 -2.154594 -3.833607 26.448012 1.725188 3.973485 58.360709 6.913405 11.579117 -14.496759 30.502705 -1.756048 4.798640 6.353822 -7.486037 
-0.335697 2.655781 0.989805 165.785297 -1.030064 82.747491 4.174076 7.323084 9.445806 -3.397203 7.938071 44.972834 -1.532039 11.508283 -9.091215 0.000000 -0.000000 0.000000 3.820944 -4.278311 -9.857069 -1.007845 -18.905892 22.412232 -4.017771 -16.283070 -8.787190 0.000000 -0.000000 0.000000 2.045857 -2.576437 8.094919 1.037395 -0.904007 7.801616 -1.050755 -2.913189 3.359699 4.462976 -0.225627 7.754253 -0.989619 6.256640 13.029034 -30.994161 4.388779 5.399629 -60.727578 -3.295803 5.328082 13.981577 -28.971174 5.255636 2.178924 -2.034745 -4.046736 26.288445 1.785199 3.838032 58.274814 7.347746 11.811994 -14.597109 31.488349 -1.900234 4.504833 6.431078 -7.742675 
-0.330460 2.670266 0.990830 162.989912 -1.422864 82.537596 3.536148 6.757647 7.677703 -1.035357 9.739203 45.643821 0.126213 14.257383 -12.160561 0.000000 -0.000000 0.000000 3.987772 -3.861900 -8.738574 -1.123497 -16.998393 22.825578 -3.493054 -15.740287 -9.655360 0.000000 -0.000000 0.000000 1.858860 -1.937763 8.378808 0.978994 -0.907734 7.553842 -1.038248 -2.775429 3.683510 4.846353 -0.306300 7.741520 -0.859743 6.370962 13.288837 -30.773728 4.448594 5.307647 -60.730679 -3.043540 5.307489 13.761186 -29.403573 5.333340 2.215635 -2.044410 -3.983346 26.065384 1.876004 3.685754 58.543845 7.792218 12.160135 -14.851248 32.480366 -2.390280 4.230015 6.540126 -8.152276 
-0.325375 2.683553 0.991716 159.911750 -1.801959 82.337974 2.968015 6.163604 6.085268 1.371161 11.424150 44.692951 1.342292 16.735592 -14.829848 0.000000 -0.000000 0.000000 4.164482 -3.243200 -7.651355 -1.218750 -15.017448 23.170561 -2.893064 -15.196232 -10.469075 0.000000 -0.000000 0.000000 1.649831 -1.340689 8.811072 0.856733 -0.884297 7.202475 -1.028882 -2.621879 3.940568 5.198153 -0.313520 7.675834 -0.638806 6.369157 13.551066 -30.566112 4.339120 5.165590 -60.642850 -2.855611 5.379292 13.687891 -29.821622 5.275819 2.315529 -2.210254 -3.452283 25.812635 2.003070 3.527016 58.957531 7.939593 12.637710 -15.082404 33.861528 -2.909995 3.968241 6.817945 -8.664364 
-0.320436 2.695953 0.992274 156.591621 -2.121298 82.221385 2.642401 5.564187 4.613213 2.628479 12.325474 42.503981 1.791322 18.195967 -17.331988 0.000000 -0.000000 0.000000 4.333198 -2.585797 -6.691384 -1.233398 -13.015233 23.551528 -2.280487 -14.496626 -11.299084 0.000000 -0.000000 0.000000 1.411468 -0.852713 9.190412 0.742632 -0.873580 6.881380 -1.022928 -2.465166 4.107574 5.552249 -0.222568 7.495382 -0.398767 6.149529 13.688984 -30.455678 4.215672 4.932872 -60.422937 -2.784527 5.485739 13.703180 -30.195508 4.968349 2.769776 -2.371285 -3.018005 25.598884 2.098206 3.368214 59.311857 7.851377 13.217043 -15.073391 35.600937 -2.907303 3.744885 7.180532 -9.207550 
-0.315659 2.707485 0.992572 153.065852 -2.353231 82.193588 2.535984 4.847575 3.207398 2.190260 11.679872 39.430663 1.343285 18.184512 -19.746467 0.000000 -0.000000 0.000000 4.493635 -1.939627 -5.827249 -1.102697 -11.027234 23.839551 -1.748580 -13.660643 -12.061990 0.000000 -0.000000 0.000000 1.141483 -0.523315 9.426178 0.690914 -0.961412 6.723245 -1.026108 -2.353672 4.193413 5.946909 0.136723 7.205813 -0.282800 5.842007 13.628069 -30.498167 4.156643 4.625875 -60.061831 -2.799668 5.585795 13.882199 -30.637574 4.311321 3.243105 -2.542081 -2.912988 25.448964 2.171031 3.179574 59.553329 7.711698 13.892073 -14.810532 37.432181 -2.311551 3.704139 7.452576 -9.780555 
-0.311061 2.718166 0.992783 149.252210 -2.466451 82.228080 2.500619 3.937431 1.876259 1.265371 9.876693 36.087085 0.811723 17.511293 -21.317186 0.000000 -0.000000 0.000000 4.700781 -1.383022 -5.002963 -0.903427 -8.922824 24.032930 -1.334668 -12.586569 -12.659184 0.000000 -0.000000 0.000000 0.968577 -0.269257 9.470483 0.658580 -1.155687 6.786735 -1.077020 -2.314969 4.286657 6.313499 0.788869 6.841858 -0.241733 5.651789 13.436580 -30.586357 3.998695 4.290039 -59.614132 -2.905270 5.759390 14.122832 -30.969040 3.664715 3.799049 -2.664548 -2.887048 25.341618 2.267706 2.965273 59.796036 7.663683 14.581242 -14.422444 39.029915 -1.375785 3.504864 7.714009 -10.315604 
-0.306852 2.728129 0.993069 145.020919 -2.504100 82.309172 2.537318 2.959404 0.663607 0.828348 7.850893 32.887030 0.632200 16.884313 -22.266794 0.000000 -0.000000 0.000000 4.875162 -0.763649 -4.199751 -0.585930 -6.653125 24.078520 -0.940476 -11.386877 -13.020413 0.000000 -0.000000 0.000000 0.879864 -0.085615 9.608310 0.594598 -1.348638 6.684880 -1.137124 -2.326612 4.369779 6.619372 1.644781 6.556554 -0.261350 5.736355 13.408366 -30.615783 3.808887 3.889080 -59.180259 -2.990140 5.948083 14.367427 -31.081003 3.160724 4.079117 -2.799481 -2.648399 25.173266 2.364068 2.799022 60.133747 7.657439 15.279896 -14.000234 40.231938 -0.549895 3.342586 8.040466 -10.676480 
-0.303180 2.737461 0.993517 140.450666 -2.561754 82.417659 2.604867 1.936420 -0.432933 0.504734 5.624455 29.984904 0.595356 16.162958 -22.678743 0.000000 -0.000000 0.000000 4.903915 -0.091602 -3.535320 -0.217316 -4.310737 24.189303 -0.475323 -10.052812 -13.265828 0.000000 -0.000000 0.000000 0.700636 0.087478 9.866979 0.540487 -1.522613 6.502883 -1.150046 -2.288219 4.384976 6.855721 2.569819 6.349940 -0.299668 5.928057 13.460784 -30.583263 3.485477 3.447745 -58.673806 -3.090798 6.237532 14.459163 -30.936682 2.689459 4.610290 -2.943310 -2.369997 24.999411 2.448694 2.612153 60.435356 7.557929 15.883012 -13.522441 41.025937 0.108171 3.078760 8.257909 -10.985442 
-0.299862 2.746458 0.994265 135.522422 -2.672777 82.526240 2.775041 0.856596 -1.353962 -0.413623 2.799281 27.474581 0.556714 14.753512 -22.757417 0.000000 -0.000000 0.000000 4.789853 0.590617 -2.975399 0.137707 -1.804552 24.432616 0.043942 -8.519034 -13.431288 0.000000 -0.000000 0.000000 0.457348 0.344280 9.969160 0.483339 -1.645289 6.603246 -1.214032 -2.219137 4.298360 7.005155 3.464427 6.316868 -0.261921 5.936442 13.387187 -30.522345 3.066686 3.133504 -58.005935 -3.287532 6.558832 14.637261 -30.781102 2.318474 5.018186 -3.034419 -2.229283 24.920496 2.581558 2.511929 60.665449 7.441549 16.292192 -13.151453 41.259063 0.788257 3.059214 8.322236 -11.265731 
